<svg xmlns="http://www.w3.org/2000/svg" xml:space="preserve" width="1500" height="333" data-id="lg_EqsbzYRaCRWfbvrpfs" data-version="1" viewBox="0 0 1500 333"><g data-padding="20"><g transform="translate(10 5.946)scale(.96429)"><rect width="190.923" height="464.402" x="-106.748" y="311.546" fill="#ead6fb" stroke="#e4ccfd" stroke-width="2" rx="127" ry="127" transform="rotate(236.3 306.973 93.229)scale(.8)"/><path fill="#2d2d2d" d="m695.204 228.713 3.518 13.062a13.36 13.36 0 0 0 9.422 9.423l13.063 3.518-13.063 3.517a13.36 13.36 0 0 0-9.422 9.423l-3.518 13.062-3.518-13.062a13.36 13.36 0 0 0-9.422-9.423l-13.06-3.52 13.062-3.518a13.36 13.36 0 0 0 9.423-9.422Zm30.561-22.21 2.57 9.547a9.77 9.77 0 0 0 6.886 6.885l9.546 2.57-9.546 2.572a9.77 9.77 0 0 0-6.885 6.885l-2.57 9.546-2.57-9.546a9.77 9.77 0 0 0-6.887-6.885l-9.544-2.573 9.546-2.57a9.77 9.77 0 0 0 6.885-6.886Zm40.28-152.45 3.517 13.062a13.36 13.36 0 0 0 9.422 9.423l13.063 3.518-13.063 3.517a13.36 13.36 0 0 0-9.422 9.423l-3.518 13.062-3.518-13.062a13.36 13.36 0 0 0-9.422-9.423l-13.06-3.52 13.062-3.518a13.36 13.36 0 0 0 9.423-9.422Z"/><rect width="560" height="85.88" x="86.907" y="-276.784" fill="none" rx="0" ry="0" transform="translate(400.5 390.03)"/><path fill="#2d2d2d" stroke="#2d2d2d" stroke-width="1.71" d="M547.017 127.216h8.13q2.59 0 3.61.84 1.03.83 1.11 3.42.45 11.55.45 24.85t-.53 19.45q-.15 1.75-1.33 3.2-1.18 1.44-3.08 1.44h-12.69q-2.66 0-5.85-1.9-17.63-10.41-22.19-12.69-.92-.38-1.49.26-.57.65-.57 2.4v8.43q0 1.45-1.06 2.28-1.6 1.3-8.21 1.3-1.82 0-3.57-.12-1.75-.11-2.85-1.56-1.1-1.44-1.18-3.11-.23-9.12-.23-22.92 0-13.79.08-17.97t.99-5.89 3.49-1.71h8.36q2.59 0 5.32 1.44 23.56 12.24 27.52 14.22 1.29.6 2.05.15.76-.46.76-1.67v-10.64q0-1.52.8-2.51.79-.99 2.16-.99Zm27.44 53.2q-2.13 0-3.61-1.41-1.48-1.4-1.9-4.63t-.42-19.38.53-21.09q.61-6.39 5.4-6.54 5.47-.15 45.37-.15 4.48 0 4.48 5.7 0 4.48-3.95 4.48h-16.72q-1.59 0-2.54 1.07-.95 1.06-.95 2.73v5.48q0 2.28 2.05 2.28h13.83q1.22 0 1.86.22.65.23 1.18 1.33.53 1.11.53 3.61 0 2.51-.87 3.35-.88.83-2.85.83h-12.39q-1.9 0-2.62.95t-.72 2.93v3.72q0 3.27 3.11 3.27h18.93q1.36 0 2.43.8 1.06.8 1.06 3.5 0 2.69-1.29 4.82t-3.04 2.13Zm70.91 0h-12.77q-1.52 0-1.52-1.14 0-.68.83-1.6l20.22-21.35-18.47-21.51q-1.59-1.98-1.59-3.23t.38-2.01q1.14-2.28 4.02-2.28l28.73-.08q2.21 0 3.31.68 1.1.69 2.62 2.82l4.03 5.77q1.14 1.75 1.86 1.75t2.09-1.44l7.68-7.76q1.14-1.21 1.74-1.52.61-.3 1.75-.3h12.09q1.44 0 1.44.99 0 .76-.84 1.82l-17.86 19.76q11.63 15.58 16.95 23.33 1.67 2.36 1.67 4.26 0 2.74-3.11 2.81-6.99.15-13.45.15t-10.95-.03q-4.48-.04-5.32-1.26l-8.74-10.87q-.91-1.14-1.56-1.14-.64 0-1.78 1.14l-10.03 10.49q-1.14 1.22-1.71 1.48-.57.27-1.71.27Zm108.97-4.65q-.07 1.68-1.44 3.08-1.37 1.41-3.65 1.56-4.33.3-10.41.3t-11.18-.3q-2.27-.15-3.64-1.56-1.37-1.4-1.45-3.08-.23-11.55-.23-19.72t.08-11.97q0-2.89-2.58-2.89h-6.84q-1.6 0-2.59-.76t-1.1-2.66-.11-3.95.11-3.53 1.22-2.28q1.1-.8 2.39-.8 9.88-.15 26.75-.15t24.17.15q1.29.08 2.39.84 1.11.76 1.22 2.24.12 1.48.12 3.46 0 1.97-.08 3.8-.23 3.42-3.72 3.42h-6.85q-2.58 0-2.58 2.66.23 9.57.23 17.32 0 7.76-.23 14.82Zm64.53.7q-1.36 2.58-4.75 4.03-3.38 1.44-7.33 1.44t-7.22-1.37-4.71-3.95q-11.4-21.05-21.2-41.34-1.15-2.44-1.15-3.73 0-4.1 3.73-4.1l21.96-.15q2.81 0 4.3.98 1.48.99 2.62 3.96l7.37 18.84q.46 1.22 1.67 1.22 1.22 0 1.83-1.22l9.95-21.58q.99-2.05 2.13-2.28.46-.08 1.6-.08l8.74.16q1.44 0 2.05 1.36.23.54.23 1.3t-1.71 4.18-8.89 19q-7.19 15.58-11.22 23.33Zm34.74 3.95q-2.13 0-3.61-1.41-1.49-1.4-1.9-4.63-.42-3.23-.42-19.38t.53-21.09q.61-6.39 5.4-6.54 5.47-.15 45.37-.15 4.48 0 4.48 5.7 0 4.48-3.95 4.48h-16.72q-1.6 0-2.55 1.07-.95 1.06-.95 2.73v5.48q0 2.28 2.06 2.28h13.83q1.22 0 1.86.22.65.23 1.18 1.33.53 1.11.53 3.61 0 2.51-.87 3.35-.88.83-2.85.83h-12.39q-1.9 0-2.62.95-.73.95-.73 2.93v3.72q0 3.27 3.12 3.27h18.92q1.37 0 2.44.8 1.06.8 1.06 3.5 0 2.69-1.29 4.82t-3.04 2.13Zm110.04-53.2h8.14q2.58 0 3.61.84 1.02.83 1.1 3.42.45 11.55.45 24.85t-.53 19.45q-.15 1.75-1.33 3.2-1.18 1.44-3.08 1.44h-12.69q-2.66 0-5.85-1.9-17.63-10.41-22.19-12.69-.91-.38-1.48.26-.57.65-.57 2.4v8.43q0 1.45-1.07 2.28-1.59 1.3-8.21 1.3-1.82 0-3.57-.12-1.75-.11-2.85-1.56-1.1-1.44-1.18-3.11-.22-9.12-.22-22.92 0-13.79.07-17.97.08-4.18.99-5.89t3.5-1.71h8.36q2.58 0 5.32 1.44 23.56 12.24 27.51 14.22 1.29.6 2.05.15.76-.46.76-1.67v-10.64q0-1.52.8-2.51t2.16-.99Zm65.06 48.55q-.08 1.68-1.44 3.08-1.37 1.41-3.65 1.56-4.33.3-10.41.3t-11.17-.3q-2.29-.15-3.65-1.56-1.37-1.4-1.45-3.08-.23-11.55-.23-19.72t.08-11.97q0-2.89-2.58-2.89h-6.84q-1.6 0-2.59-.76t-1.1-2.66-.11-3.95.11-3.53 1.22-2.28q1.1-.8 2.39-.8 9.88-.15 26.75-.15t24.17.15q1.29.08 2.39.84 1.11.76 1.22 2.24t.11 3.46q0 1.97-.07 3.8-.23 3.42-3.73 3.42h-6.84q-2.58 0-2.58 2.66.23 9.57.23 17.32 0 7.76-.23 14.82Z"/><rect width="560" height="85.88" x="86.907" y="-276.784" fill="none" rx="0" ry="0" transform="translate(400.5 386.06)"/><path fill="#7902f5" stroke="#2d2d2d" stroke-width="1.71" d="M547.017 123.246h8.13q2.59 0 3.61.84 1.03.83 1.11 3.42.45 11.55.45 24.85t-.53 19.45q-.15 1.75-1.33 3.2-1.18 1.44-3.08 1.44h-12.69q-2.66 0-5.85-1.9-17.63-10.41-22.19-12.69-.92-.38-1.49.26-.57.65-.57 2.4v8.43q0 1.45-1.06 2.28-1.6 1.3-8.21 1.3-1.82 0-3.57-.12-1.75-.11-2.85-1.56-1.1-1.44-1.18-3.11-.23-9.12-.23-22.92 0-13.79.08-17.97t.99-5.89 3.49-1.71h8.36q2.59 0 5.32 1.44 23.56 12.24 27.52 14.22 1.29.6 2.05.15.76-.46.76-1.67v-10.64q0-1.52.8-2.51.79-.99 2.16-.99Zm27.44 53.2q-2.13 0-3.61-1.41-1.48-1.4-1.9-4.63t-.42-19.38.53-21.09q.61-6.39 5.4-6.54 5.47-.15 45.37-.15 4.48 0 4.48 5.7 0 4.48-3.95 4.48h-16.72q-1.59 0-2.54 1.07-.95 1.06-.95 2.73v5.48q0 2.28 2.05 2.28h13.83q1.22 0 1.86.22.65.23 1.18 1.33.53 1.11.53 3.61 0 2.51-.87 3.35-.88.83-2.85.83h-12.39q-1.9 0-2.62.95t-.72 2.93v3.72q0 3.27 3.11 3.27h18.93q1.36 0 2.43.8 1.06.8 1.06 3.5 0 2.69-1.29 4.82t-3.04 2.13Zm70.91 0h-12.77q-1.52 0-1.52-1.14 0-.68.83-1.6l20.22-21.35-18.47-21.51q-1.59-1.98-1.59-3.23t.38-2.01q1.14-2.28 4.02-2.28l28.73-.08q2.21 0 3.31.68 1.1.69 2.62 2.82l4.03 5.77q1.14 1.75 1.86 1.75t2.09-1.44l7.68-7.76q1.14-1.21 1.74-1.52.61-.3 1.75-.3h12.09q1.44 0 1.44.99 0 .76-.84 1.82l-17.86 19.76q11.63 15.58 16.95 23.33 1.67 2.36 1.67 4.26 0 2.74-3.11 2.81-6.99.15-13.45.15t-10.95-.03q-4.48-.04-5.32-1.26l-8.74-10.87q-.91-1.14-1.56-1.14-.64 0-1.78 1.14l-10.03 10.49q-1.14 1.22-1.71 1.48-.57.27-1.71.27Zm108.97-4.64q-.07 1.68-1.44 3.08-1.37 1.41-3.65 1.56-4.33.3-10.41.3t-11.18-.3q-2.27-.15-3.64-1.56-1.37-1.4-1.45-3.08-.23-11.55-.23-19.72t.08-11.97q0-2.89-2.58-2.89h-6.84q-1.6 0-2.59-.76t-1.1-2.66-.11-3.95.11-3.53 1.22-2.28q1.1-.8 2.39-.8 9.88-.15 26.75-.15t24.17.15q1.29.08 2.39.84 1.11.76 1.22 2.24.12 1.48.12 3.46 0 1.97-.08 3.8-.23 3.42-3.72 3.42h-6.85q-2.58 0-2.58 2.66.23 9.57.23 17.32 0 7.76-.23 14.82Zm64.53.69q-1.36 2.58-4.75 4.03-3.38 1.44-7.33 1.44t-7.22-1.37-4.71-3.95q-11.4-21.05-21.2-41.34-1.15-2.44-1.15-3.73 0-4.1 3.73-4.1l21.96-.15q2.81 0 4.3.98 1.48.99 2.62 3.96l7.37 18.84q.46 1.22 1.67 1.22 1.22 0 1.83-1.22l9.95-21.58q.99-2.05 2.13-2.28.46-.08 1.6-.08l8.74.16q1.44 0 2.05 1.36.23.54.23 1.3t-1.71 4.18-8.89 19q-7.19 15.58-11.22 23.33Zm34.74 3.95q-2.13 0-3.61-1.41-1.49-1.4-1.9-4.63-.42-3.23-.42-19.38t.53-21.09q.61-6.39 5.4-6.54 5.47-.15 45.37-.15 4.48 0 4.48 5.7 0 4.48-3.95 4.48h-16.72q-1.6 0-2.55 1.07-.95 1.06-.95 2.73v5.48q0 2.28 2.06 2.28h13.83q1.22 0 1.86.22.65.23 1.18 1.33.53 1.11.53 3.61 0 2.51-.87 3.35-.88.83-2.85.83h-12.39q-1.9 0-2.62.95-.73.95-.73 2.93v3.72q0 3.27 3.12 3.27h18.92q1.37 0 2.44.8 1.06.8 1.06 3.5 0 2.69-1.29 4.82t-3.04 2.13Zm110.04-53.2h8.14q2.58 0 3.61.84 1.02.83 1.1 3.42.45 11.55.45 24.85t-.53 19.45q-.15 1.75-1.33 3.2-1.18 1.44-3.08 1.44h-12.69q-2.66 0-5.85-1.9-17.63-10.41-22.19-12.69-.91-.38-1.48.26-.57.65-.57 2.4v8.43q0 1.45-1.07 2.28-1.59 1.3-8.21 1.3-1.82 0-3.57-.12-1.75-.11-2.85-1.56-1.1-1.44-1.18-3.11-.22-9.12-.22-22.92 0-13.79.07-17.97.08-4.18.99-5.89t3.5-1.71h8.36q2.58 0 5.32 1.44 23.56 12.24 27.51 14.22 1.29.6 2.05.15.76-.46.76-1.67v-10.64q0-1.52.8-2.51t2.16-.99Zm65.06 48.56q-.08 1.68-1.44 3.08-1.37 1.41-3.65 1.56-4.33.3-10.41.3t-11.17-.3q-2.29-.15-3.65-1.56-1.37-1.4-1.45-3.08-.23-11.55-.23-19.72t.08-11.97q0-2.89-2.58-2.89h-6.84q-1.6 0-2.59-.76t-1.1-2.66-.11-3.95.11-3.53 1.22-2.28q1.1-.8 2.39-.8 9.88-.15 26.75-.15t24.17.15q1.29.08 2.39.84 1.11.76 1.22 2.24t.11 3.46q0 1.97-.07 3.8-.23 3.42-3.73 3.42h-6.84q-2.58 0-2.58 2.66.23 9.57.23 17.32 0 7.76-.23 14.82Z"/></g><path fill="transparent" stroke="transparent" d="M470 0h560v333H470z"/></g></svg>